<svg width="52" height="52" viewBox="0 0 52 52" fill="none" xmlns="http://www.w3.org/2000/svg">
<circle cx="26" cy="26" r="25" fill="#CD884F" stroke="#653C22" stroke-width="2"/>
<path fill-rule="evenodd" clip-rule="evenodd" d="M35.5812 15.1608C37.0654 14.5472 38.6566 15.7794 38.3945 17.3393L35.2991 35.7646C35.0006 37.5411 33.0131 38.5605 31.3529 37.6752C29.9636 36.9344 27.9024 35.7942 26.0448 34.6026C25.1172 34.0075 22.2769 32.0994 22.626 30.7412C22.9245 29.5798 27.6994 25.2163 30.428 22.6213C31.4998 21.6019 31.0117 21.013 29.7459 21.9516C26.6058 24.2798 21.5645 27.8196 19.8974 28.8158C18.4265 29.6947 17.6585 29.8447 16.7424 29.6947C15.0696 29.4211 13.5187 28.9973 12.2526 28.4821C10.5412 27.7856 10.6246 25.4768 12.2514 24.8044L35.5812 15.1608Z" fill="white"/>
</svg>
