<svg width="82" height="82" viewBox="0 0 82 82" fill="none" xmlns="http://www.w3.org/2000/svg">
<circle cx="41" cy="41" r="40" fill="#CD884F" stroke="#653C22" stroke-width="2"/>
<path fill-rule="evenodd" clip-rule="evenodd" d="M56.1084 23.9078C58.4489 22.9403 60.9581 24.8833 60.5448 27.3432L55.6635 56.3985C55.1928 59.1999 52.0586 60.8074 49.4406 59.4113C47.2499 58.2431 43.9995 56.4451 41.0702 54.566C39.6075 53.6276 35.1285 50.6188 35.679 48.4769C36.1498 46.6455 43.6794 39.7646 47.9822 35.6724C49.6723 34.065 48.9026 33.1364 46.9065 34.6164C41.9549 38.2878 34.0051 43.8698 31.3762 45.4408C29.0567 46.8267 27.8456 47.0633 26.4011 46.8267C23.7632 46.3952 21.3176 45.727 19.3209 44.9145C16.6223 43.8162 16.7537 40.1754 19.3191 39.1151L56.1084 23.9078Z" fill="white"/>
</svg>
